<svg width="117" height="118" viewBox="0 0 117 118" fill="none" xmlns="http://www.w3.org/2000/svg">
<path d="M48.1758 81.0758C48.9568 81.8568 50.2232 81.8568 51.0042 81.0758L88.0083 44.0717C88.7893 43.2907 88.7893 42.0243 88.0083 41.2433L82.9267 36.1617C82.1457 35.3807 80.8793 35.3807 80.0983 36.1617L51.0042 65.2558C50.2232 66.0368 48.9568 66.0368 48.1758 65.2558L34.9017 51.9817C34.1207 51.2007 32.8543 51.2007 32.0733 51.9817L26.9917 57.0633C26.2107 57.8443 26.2107 59.1107 26.9917 59.8917L48.1758 81.0758ZM57.5 113C49.6842 113 42.3392 111.516 35.465 108.548C28.5908 105.58 22.6112 101.555 17.5262 96.4737C12.4412 91.3887 8.41657 85.4091 5.4522 78.535C2.48783 71.6608 1.00377 64.3158 1 56.5C1 48.6842 2.48407 41.3392 5.4522 34.465C8.42033 27.5908 12.445 21.6112 17.5262 16.5262C22.6112 11.4412 28.5908 7.41657 35.465 4.4522C42.3392 1.48783 49.6842 0.00376667 57.5 0C65.3158 0 72.6608 1.48407 79.535 4.4522C86.4091 7.42033 92.3887 11.445 97.4737 16.5262C102.559 21.6112 106.585 27.5908 109.553 34.465C112.522 41.3392 114.004 48.6842 114 56.5C114 64.3158 112.516 71.6608 109.548 78.535C106.58 85.4091 102.555 91.3887 97.4737 96.4737C92.3887 101.559 86.4091 105.585 79.535 108.553C72.6608 111.522 65.3158 113.004 57.5 113ZM57.5 101.7C70.1183 101.7 80.8062 97.3212 89.5637 88.5637C98.3212 79.8062 102.7 69.1183 102.7 56.5C102.7 43.8817 98.3212 33.1937 89.5637 24.4362C80.8062 15.6787 70.1183 11.3 57.5 11.3C44.8817 11.3 34.1937 15.6787 25.4362 24.4362C16.6787 33.1937 12.3 43.8817 12.3 56.5C12.3 69.1183 16.6787 79.8062 25.4362 88.5637C34.1937 97.3212 44.8817 101.7 57.5 101.7Z" fill="#28A47F"/>
</svg>
