<svg width="118" height="118" viewBox="0 0 118 118" fill="none" xmlns="http://www.w3.org/2000/svg">
<path d="M36.2458 83.3358C37.0268 84.1168 38.2932 84.1168 39.0742 83.3358L56.5858 65.8242C57.3668 65.0432 58.6332 65.0432 59.4142 65.8242L76.9258 83.3358C77.7068 84.1168 78.9732 84.1168 79.7542 83.3358L84.8358 78.2542C85.6168 77.4732 85.6168 76.2068 84.8358 75.4258L67.3242 57.9142C66.5432 57.1332 66.5432 55.8668 67.3242 55.0858L84.8358 37.5742C85.6168 36.7932 85.6168 35.5268 84.8358 34.7458L79.7542 29.6642C78.9732 28.8832 77.7068 28.8832 76.9258 29.6642L59.4142 47.1758C58.6332 47.9568 57.3668 47.9568 56.5858 47.1758L39.0742 29.6642C38.2932 28.8832 37.0268 28.8832 36.2458 29.6642L31.1642 34.7458C30.3832 35.5268 30.3832 36.7932 31.1642 37.5742L48.6758 55.0858C49.4568 55.8668 49.4568 57.1332 48.6758 57.9142L31.1642 75.4258C30.3832 76.2068 30.3832 77.4732 31.1642 78.2542L36.2458 83.3358ZM58 113C50.1842 113 42.8392 111.516 35.965 108.548C29.0908 105.58 23.1112 101.555 18.0262 96.4737C12.9413 91.3887 8.91657 85.4092 5.9522 78.535C2.98783 71.6608 1.50377 64.3158 1.5 56.5C1.5 48.6842 2.98407 41.3392 5.9522 34.465C8.92033 27.5908 12.945 21.6112 18.0262 16.5262C23.1112 11.4413 29.0908 7.41657 35.965 4.4522C42.8392 1.48783 50.1842 0.00376667 58 0C65.8158 0 73.1608 1.48407 80.035 4.4522C86.9092 7.42033 92.8887 11.445 97.9737 16.5262C103.059 21.6112 107.085 27.5908 110.053 34.465C113.022 41.3392 114.504 48.6842 114.5 56.5C114.5 64.3158 113.016 71.6608 110.048 78.535C107.08 85.4092 103.055 91.3887 97.9737 96.4737C92.8887 101.559 86.9092 105.585 80.035 108.553C73.1608 111.522 65.8158 113.004 58 113ZM58 101.7C70.6183 101.7 81.3062 97.3212 90.0637 88.5637C98.8212 79.8062 103.2 69.1183 103.2 56.5C103.2 43.8817 98.8212 33.1937 90.0637 24.4362C81.3062 15.6787 70.6183 11.3 58 11.3C45.3817 11.3 34.6937 15.6787 25.9362 24.4362C17.1787 33.1937 12.8 43.8817 12.8 56.5C12.8 69.1183 17.1787 79.8062 25.9362 88.5637C34.6937 97.3212 45.3817 101.7 58 101.7Z" fill="#EC3C3C"/>
</svg>
